<svg width="252" height="253" viewBox="0 0 252 253" fill="none" xmlns="http://www.w3.org/2000/svg">
<path d="M22.6802 176.102H39.1541C39.5099 176.105 39.855 175.98 40.1252 175.748C40.3954 175.516 40.5723 175.195 40.6231 174.842L44.2956 155.745H57.0971C62.4558 155.879 67.8024 155.171 72.9414 153.647C77.1051 152.269 80.9062 149.974 84.0639 146.931C86.8998 144.382 89.2777 141.365 91.0942 138.012C92.8909 134.732 94.1654 131.192 94.8717 127.519C95.9865 123.669 96.178 119.61 95.4305 115.672C94.683 111.734 93.0177 108.028 90.5696 104.854C87.7331 101.972 84.3 99.7458 80.5114 98.3319C76.7228 96.918 72.6706 96.3507 68.6393 96.6698H37.1604C36.7828 96.6868 36.422 96.8307 36.1364 97.0783C35.8507 97.3259 35.657 97.6626 35.5865 98.0339L21.1062 174.213C20.9458 174.653 20.9458 175.136 21.1062 175.577C21.3064 175.785 21.5543 175.942 21.8285 176.033C22.1027 176.125 22.3949 176.148 22.6802 176.102ZM52.5851 111.465H63.078C65.0744 111.197 67.104 111.328 69.0494 111.85C70.9947 112.372 72.817 113.276 74.4104 114.508C76.1942 116.397 76.509 119.964 75.5647 125.001C75.0386 129.507 72.9169 133.676 69.5837 136.753C65.4279 139.384 60.5318 140.599 55.628 140.216H47.2337L52.5851 111.465ZM155.416 101.497C149.735 97.3203 142.702 95.4122 135.689 96.1452H123.203L126.665 77.6776C126.768 77.4648 126.821 77.2317 126.821 76.9955C126.821 76.7594 126.768 76.5263 126.665 76.3135C126.293 76.1771 125.884 76.1771 125.511 76.3135H109.037C108.681 76.3098 108.336 76.4355 108.066 76.6671C107.796 76.8987 107.619 77.2204 107.568 77.5726L93.0879 153.856C92.9867 154.051 92.9339 154.267 92.9339 154.486C92.9339 154.705 92.9867 154.921 93.0879 155.116C93.2117 155.309 93.3824 155.469 93.5842 155.579C93.7859 155.689 94.0123 155.746 94.2421 155.745H110.401C110.773 155.746 111.132 155.606 111.405 155.353C111.677 155.099 111.844 154.752 111.87 154.381L119.95 111.675H131.597C136.319 111.675 137.998 112.724 138.522 113.354C138.95 114.385 139.169 115.49 139.169 116.606C139.169 117.723 138.95 118.828 138.522 119.859L132.122 153.856C132.021 154.051 131.968 154.267 131.968 154.486C131.968 154.705 132.021 154.921 132.122 155.116C132.252 155.303 132.424 155.457 132.624 155.567C132.825 155.676 133.048 155.737 133.276 155.745H149.645C150.023 155.728 150.383 155.584 150.669 155.337C150.955 155.089 151.148 154.752 151.219 154.381L157.934 118.705C159.018 115.86 159.355 112.785 158.915 109.773C158.474 106.761 157.269 103.912 155.416 101.497ZM202.844 96.1452H170.001C169.808 96.1309 169.614 96.1549 169.431 96.2158C169.247 96.2767 169.077 96.3733 168.931 96.5001C168.785 96.6268 168.665 96.7812 168.578 96.9544C168.492 97.1276 168.441 97.3162 168.427 97.5093L153.108 174.213C153.012 174.427 152.963 174.66 152.963 174.895C152.963 175.13 153.012 175.362 153.108 175.577C153.249 175.745 153.425 175.879 153.625 175.97C153.825 176.061 154.042 176.106 154.262 176.102H171.365C171.739 176.132 172.11 176.019 172.402 175.784C172.695 175.55 172.887 175.213 172.939 174.842L176.822 155.745H190.148C195.678 155.867 201.196 155.159 206.517 153.647C211.098 152.372 215.331 150.076 218.898 146.931C221.828 144.389 224.31 141.374 226.244 138.012C228.074 134.737 229.383 131.197 230.126 127.519C231.27 123.665 231.466 119.593 230.699 115.647C229.932 111.701 228.223 107.999 225.719 104.854C222.752 101.849 219.174 99.5166 215.228 98.014C211.282 96.5115 207.058 95.8742 202.844 96.1452ZM209.35 125.211C208.722 129.754 206.489 133.923 203.054 136.963C198.748 139.606 193.716 140.818 188.679 140.425H180.284L185.951 111.465H196.444C200.638 110.951 204.872 112.037 208.301 114.508C209.979 116.397 209.979 119.964 209.35 125.211Z" fill="#C855FE"/>
</svg>
