<svg width="251" height="120" viewBox="0 0 251 120" fill="none" xmlns="http://www.w3.org/2000/svg">
<path d="M2.0183 118.997H21.6433C22.0672 119.001 22.4783 118.852 22.8001 118.576C23.122 118.3 23.3328 117.916 23.3933 117.497L27.7683 94.7469H43.0183C49.402 94.9066 55.7713 94.063 61.8933 92.2469C66.8534 90.6063 71.3816 87.8723 75.1433 84.2469C78.5216 81.2098 81.3543 77.6161 83.5183 73.6219C85.6587 69.7143 87.1769 65.497 88.0183 61.1219C89.3464 56.5353 89.5744 51.7003 88.684 47.0091C87.7935 42.3179 85.8096 37.9028 82.8933 34.1219C79.5143 30.6883 75.4245 28.0363 70.9112 26.3519C66.398 24.6675 61.5706 23.9917 56.7683 24.3719H19.2683C18.8185 24.3921 18.3886 24.5636 18.0484 24.8585C17.7081 25.1534 17.4773 25.5545 17.3933 25.9969L0.143304 116.747C-0.0477679 117.272 -0.0477679 117.847 0.143304 118.372C0.381826 118.62 0.677101 118.807 1.00372 118.916C1.33034 119.024 1.67852 119.052 2.0183 118.997ZM37.6433 41.9969H50.1433C52.5215 41.6774 54.9394 41.8333 57.2568 42.4556C59.5742 43.0779 61.745 44.1541 63.6433 45.6219C65.7683 47.8719 66.1433 52.1219 65.0183 58.1219C64.3916 63.4897 61.8641 68.4559 57.8933 72.1219C52.9426 75.2565 47.1101 76.7036 41.2683 76.2469H31.2683L37.6433 41.9969ZM160.143 30.1219C153.376 25.1467 144.997 22.8737 136.643 23.7469H121.768L125.893 1.74688C126.015 1.49337 126.078 1.21567 126.078 0.934378C126.078 0.653083 126.015 0.375391 125.893 0.121878C125.449 -0.0406259 124.962 -0.0406259 124.518 0.121878H104.893C104.469 0.117533 104.058 0.267204 103.736 0.543086C103.415 0.818968 103.204 1.2023 103.143 1.62188L85.8933 92.4969C85.7728 92.7285 85.7099 92.9858 85.7099 93.2469C85.7099 93.508 85.7728 93.7652 85.8933 93.9969C86.0407 94.2276 86.2441 94.4173 86.4845 94.5485C86.7249 94.6796 86.9945 94.7478 87.2683 94.7469H106.518C106.962 94.748 107.389 94.5809 107.714 94.2793C108.038 93.9776 108.237 93.564 108.268 93.1219L117.893 42.2469H131.768C137.393 42.2469 139.393 43.4969 140.018 44.2469C140.527 45.4754 140.789 46.7921 140.789 48.1219C140.789 49.4516 140.527 50.7684 140.018 51.9969L132.393 92.4969C132.273 92.7285 132.21 92.9858 132.21 93.2469C132.21 93.508 132.273 93.7652 132.393 93.9969C132.548 94.2201 132.754 94.4041 132.992 94.5343C133.231 94.6645 133.497 94.7373 133.768 94.7469H153.268C153.718 94.7266 154.148 94.5552 154.488 94.2603C154.829 93.9654 155.059 93.5643 155.143 93.1219L163.143 50.6219C164.434 47.2328 164.836 43.5698 164.311 39.9815C163.786 36.3932 162.351 32.9989 160.143 30.1219V30.1219ZM216.643 23.7469H177.518C177.288 23.7299 177.057 23.7585 176.838 23.831C176.62 23.9036 176.417 24.0186 176.243 24.1697C176.069 24.3207 175.926 24.5046 175.823 24.7109C175.72 24.9172 175.659 25.1419 175.643 25.3719L157.393 116.747C157.28 117.003 157.221 117.279 157.221 117.559C157.221 117.839 157.28 118.116 157.393 118.372C157.561 118.572 157.772 118.732 158.01 118.84C158.248 118.949 158.507 119.002 158.768 118.997H179.143C179.588 119.033 180.03 118.898 180.379 118.619C180.727 118.34 180.956 117.939 181.018 117.497L185.643 94.7469H201.518C208.107 94.8917 214.68 94.0491 221.018 92.2469C226.476 90.7286 231.519 87.9934 235.768 84.2469C239.258 81.2186 242.215 77.6272 244.518 73.6219C246.698 69.7201 248.259 65.503 249.143 61.1219C250.506 56.5311 250.74 51.6793 249.826 46.9787C248.912 42.2781 246.877 37.8675 243.893 34.1219C240.359 30.542 236.097 27.7631 231.396 25.9732C226.694 24.1832 221.663 23.424 216.643 23.7469V23.7469ZM224.393 58.3719C223.646 63.7845 220.985 68.7507 216.893 72.3719C211.764 75.5207 205.769 76.9647 199.768 76.4969H189.768L196.518 41.9969H209.018C214.015 41.3845 219.059 42.6789 223.143 45.6219C225.143 47.8719 225.143 52.1219 224.393 58.3719V58.3719Z" fill="white"/>
</svg>
