<svg width="252" height="253" viewBox="0 0 252 253" fill="none" xmlns="http://www.w3.org/2000/svg">
<path d="M31.4789 32.3097H220.352V221.183H31.4789V32.3097ZM204.875 176.137C203.5 167.522 197.887 160.282 181.245 153.524C175.453 150.807 169.021 148.928 167.09 144.563C166.376 141.961 166.271 140.555 166.733 139.013C167.919 133.934 173.942 132.413 178.664 133.819C181.738 134.763 184.571 137.124 186.344 140.912C194.476 135.592 194.476 135.592 200.153 132.056C198.023 128.761 196.963 127.323 195.547 125.907C190.584 120.367 183.973 117.534 173.239 117.775L167.698 118.478C162.379 119.779 157.3 122.623 154.236 126.39C145.265 136.547 147.856 154.248 158.716 161.583C169.451 169.61 185.169 171.373 187.173 178.928C189.062 188.141 180.332 191.089 171.696 190.029C165.327 188.602 161.78 185.423 157.888 179.515L143.491 187.784C145.139 191.551 147.027 193.209 149.86 196.514C163.554 210.323 197.792 209.62 203.931 188.602C204.151 187.899 205.819 183.062 204.518 175.623L204.875 176.137ZM134.184 119.118H116.493C116.493 134.364 116.419 149.527 116.419 164.804C116.419 174.5 116.913 183.398 115.328 186.136C112.736 191.561 106.031 190.869 102.999 189.903C99.8825 188.371 98.298 186.241 96.4618 183.177C95.9686 182.359 95.6013 181.645 95.4649 181.645L81.1106 190.502C83.5135 195.465 87.0181 199.725 91.5406 202.432C98.2665 206.451 107.301 207.752 116.766 205.632C122.936 203.849 128.255 200.187 131.015 194.52C135.044 187.207 134.184 178.225 134.152 168.193C134.236 152.024 134.152 135.844 134.152 119.559L134.184 119.118Z" fill="#FFD600"/>
</svg>
