<svg width="226" height="226" viewBox="0 0 226 226" fill="none" xmlns="http://www.w3.org/2000/svg">
<path d="M0.5 0.5H225.5V225.5H0.5V0.5ZM207.062 171.838C205.425 161.575 198.738 152.95 178.913 144.9C172.013 141.663 164.35 139.425 162.05 134.225C161.2 131.125 161.075 129.45 161.625 127.612C163.038 121.562 170.213 119.75 175.838 121.425C179.5 122.55 182.875 125.363 184.988 129.875C194.675 123.538 194.675 123.537 201.438 119.325C198.9 115.4 197.637 113.688 195.95 112C190.037 105.4 182.163 102.025 169.375 102.313L162.775 103.15C156.438 104.7 150.388 108.087 146.738 112.575C136.05 124.675 139.138 145.762 152.075 154.5C164.863 164.062 183.587 166.162 185.975 175.162C188.225 186.137 177.825 189.65 167.538 188.388C159.95 186.688 155.725 182.9 151.087 175.862L133.938 185.712C135.9 190.2 138.15 192.175 141.525 196.113C157.837 212.563 198.625 211.725 205.937 186.688C206.2 185.85 208.187 180.088 206.637 171.225L207.062 171.838V171.838ZM122.85 103.912H101.775C101.775 122.075 101.688 140.137 101.688 158.337C101.688 169.887 102.275 180.487 100.388 183.75C97.3 190.212 89.3125 189.387 85.7 188.237C81.9875 186.412 80.1 183.875 77.9125 180.225C77.325 179.25 76.8875 178.4 76.725 178.4L59.625 188.95C62.4875 194.863 66.6625 199.937 72.05 203.162C80.0625 207.95 90.825 209.5 102.1 206.975C109.45 204.85 115.788 200.487 119.075 193.737C123.875 185.025 122.85 174.325 122.812 162.375C122.912 143.112 122.812 123.837 122.812 104.437L122.85 103.912Z" fill="white"/>
</svg>
